#!OML:ASF X:\2005_08_12_Meinard\c3d\meinard.ASF
:FULLY-SPECIFIED
:DEGREES
1761
root 4.80918 16.4359 -0.0859309 67.1538 -86.7047 -89.9874
lowerback 34.7592 -1.08171 2.16621
upperback 8.56275 -1.48154 2.04006
thorax -8.10745 -1.2027 1.61777
lowerneck -13.5873 -4.19725 -5.95305
upperneck 3.91951 -5.2463 7.82766
head 3.73362 -2.32588 2.98271
rclavicle 1.92324e-014 -2.3059e-014
rhumerus -31.7748 -2.02413 -83.5284
rradius 36.5884
rwrist 29.5712
rhand -7.25264 -3.17869
rfingers 7.12502
rthumb 18.6278 -32.3068
lclavicle 1.92324e-014 -2.3059e-014
lhumerus -20.6422 9.49868 89.1093
lradius 42.4263
lwrist -209.126
lhand -18.0789 6.02378
lfingers 7.12502
lthumb 8.1942 35.8449
rfemur -168.687 -169.994 200.139
rtibia 39.9723
rfoot 155.277 163.46
rtoes 1.82938
lfemur -180.681 175.035 -192.755
ltibia 47.3249
lfoot -17.6905 26.9888
ltoes 12.7917
1762
root 4.78272 16.4253 -0.060909 70.0184 -86.8233 -92.9208
lowerback 34.8564 -1.01358 1.95845
upperback 8.59528 -1.47396 2.04807
thorax -8.10599 -1.20228 1.73556
lowerneck -13.6486 -4.13454 -5.78053
upperneck 3.93003 -5.17823 7.68644
head 3.73303 -2.29513 2.91585
rclavicle 5.61567e-015 -7.55382e-015
rhumerus -32.371 -1.84446 -83.5609
rradius 37.8358
rwrist 29.4621
rhand -7.09339 -3.32637
rfingers 7.12502
rthumb 18.781 -32.4397
lclavicle 5.61567e-015 -7.55382e-015
lhumerus -20.1781 8.28202 89.5864
lradius 42.9678
lwrist -208.118
lhand -18.2842 5.62749
lfingers 7.12502
lthumb 7.99606 35.4562
rfemur -168.95 -169.972 199.766
rtibia 40.7652
rfoot 155.236 163.903
rtoes 1.49384
lfemur -180.41 175.085 -193
ltibia 47.2178
lfoot -17.6741 27.3615
ltoes 12.8734
1763
root 4.75717 16.4135 -0.0357672 73.6568 -86.9211 -96.6336
lowerback 34.966 -0.940785 1.75742
upperback 8.62789 -1.45897 2.05752
thorax -8.10888 -1.19888 1.8489
lowerneck -13.6828 -4.06313 -5.60855
upperneck 3.93014 -5.09849 7.53711
head 3.72416 -2.2597 2.84795
rclavicle -1.20265e-014 7.95139e-016
rhumerus -32.9737 -1.57232 -83.623
rradius 39.1356
rwrist 29.2955
rhand -6.90218 -3.55907
rfingers 7.12502
rthumb 18.9649 -32.6545
lclavicle -1.20265e-014 7.95139e-016
lhumerus -19.6526 7.15202 90.0622
lradius 43.4508
lwrist -207.201
lhand -18.3816 5.39185
lfingers 7.12502
lthumb 7.90202 35.2242
rfemur -169.276 -169.979 199.411
rtibia 41.6579
rfoot 155.275 164.355
rtoes 1.25578
lfemur -180.162 175.031 -193.185
ltibia 47.129
lfoot -17.6165 27.6583
ltoes 13.0038
1764
root 4.73205 16.4014 -0.0108969 77.7663 -87.0095 -100.818
lowerback 35.0797 -0.846548 1.46376
upperback 8.6643 -1.44642 2.11667
thorax -8.10755 -1.19779 2.0648
lowerneck -13.7584 -3.96506 -5.42797
upperneck 3.95635 -4.98 7.34043
head 3.72593 -2.20611 2.76647
rclavicle 2.00276e-014 -1.70955e-014
rhumerus -33.5212 -1.22324 -83.6508
rradius 40.4209
rwrist 29.1439
rhand -6.76513 -3.74988
rfingers 7.12502
rthumb 19.0967 -32.8324
lclavicle 2.00276e-014 -1.70955e-014
lhumerus -19.0616 6.16236 90.5811
lradius 43.8755
lwrist -206.391
lhand -18.354 5.30833
lfingers 7.12502
lthumb 7.92865 35.1396
rfemur -169.668 -170.018 199.06
rtibia 42.6501
rfoot 155.467 164.804
rtoes 1.09559
lfemur -179.942 174.858 -193.332
ltibia 47.074
lfoot -17.5017 27.8308
ltoes 13.3795
1765
root 4.70804 16.3886 0.0140108 82.276 -87.0751 -105.407
lowerback 35.2088 -0.734984 1.09207
upperback 8.70018 -1.43742 2.21139
thorax -8.11105 -1.19928 2.36154
lowerneck -13.8115 -3.8319 -5.15015
upperneck 3.95927 -4.8233 7.04576
head 3.70992 -2.13769 2.64257
rclavicle -8.84592e-015 2.42517e-014
rhumerus -34.0483 -0.791614 -83.6872
rradius 41.7407
rwrist 28.9288
rhand -6.63361 -3.97637
rfingers 7.12502
rthumb 19.2232 -33.0463
lclavicle -8.84592e-015 2.42517e-014
lhumerus -18.4397 5.12932 91.1275
lradius 44.2731
lwrist -205.634
lhand -18.1335 5.37348
lfingers 7.12502
lthumb 8.14149 35.1966
rfemur -170.132 -170.061 198.709
rtibia 43.7457
rfoot 155.853 165.273
rtoes 1.29368
lfemur -179.738 174.613 -193.44
ltibia 47.0653
lfoot -17.468 27.9495
ltoes 13.6479
1766
root 4.68488 16.3732 0.0391969 87.362 -87.1 -110.585
lowerback 35.4345 -0.625393 0.716423
upperback 8.65857 -1.43274 2.31168
thorax -8.10929 -1.20473 2.67777
lowerneck -13.8691 -3.6666 -4.84375
upperneck 3.97323 -4.6276 6.72946
head 3.69543 -2.05046 2.51037
rclavicle -4.17448e-015 7.95139e-015
rhumerus -34.5743 -0.306708 -83.7328
rradius 43.1022
rwrist 28.6722
rhand -6.48275 -4.16706
rfingers 7.12502
rthumb 19.3682 -33.2225
lclavicle -4.17448e-015 7.95139e-015
lhumerus -17.8162 4.02092 91.6559
lradius 44.7059
lwrist -204.827
lhand -17.8665 5.51128
lfingers 7.12502
lthumb 8.39918 35.3243
rfemur -170.663 -169.986 198.288
rtibia 44.9611
rfoot 156.56 165.921
rtoes 1.63616
lfemur -179.527 174.317 -193.501
ltibia 47.0765
lfoot -17.4629 28.0236
ltoes 13.9276
1767
root 4.66269 16.3575 0.0635053 92.7279 -87.094 -116.044
lowerback 35.5772 -0.522265 0.318729
upperback 8.71376 -1.44902 2.42712
thorax -8.09425 -1.22107 3.01917
lowerneck -13.981 -3.49075 -4.5971
upperneck 4.00906 -4.40676 6.41331
head 3.69739 -1.95071 2.38901
rclavicle 3.89618e-014 -1.59028e-015
rhumerus -35.1022 0.293409 -83.8051
rradius 44.5721
rwrist 28.2894
rhand -6.30407 -4.40615
rfingers 7.12502
rthumb 19.54 -33.4442
lclavicle 3.89618e-014 -1.59028e-015
lhumerus -17.1817 2.90858 92.169
lradius 45.1674
lwrist -204.032
lhand -17.5341 5.70375
lfingers 7.12502
lthumb 8.71992 35.5036
rfemur -171.284 -169.833 197.813
rtibia 46.29
rfoot 157.604 166.719
rtoes 2.40922
lfemur -179.306 173.954 -193.528
ltibia 47.0811
lfoot -17.4922 28.0461
ltoes 14.1534
1768
root 4.64106 16.3477 0.0871171 97.9662 -87.0245 -121.398
lowerback 35.7702 -0.455602 -0.0240552
upperback 8.75508 -1.49224 2.55378
thorax -8.11101 -1.25099 3.35549
lowerneck -14.0991 -3.32158 -4.57718
upperneck 4.08068 -4.16593 6.21866
head 3.71916 -1.83823 2.34293
rclavicle 3.65764e-014 -3.97569e-015
rhumerus -35.6291 0.961617 -83.8726
rradius 46.0775
rwrist 27.8451
rhand -6.13593 -4.63828
rfingers 7.12502
rthumb 19.7017 -33.6599
lclavicle 3.65764e-014 -3.97569e-015
lhumerus -16.584 1.84806 92.6699
lradius 45.6641
lwrist -203.334
lhand -17.144 5.94892
lfingers 7.12502
lthumb 9.09635 35.7328
rfemur -171.961 -169.817 197.452
rtibia 47.6934
rfoot 158.807 167.498
rtoes 3.22956
lfemur -179.024 173.57 -193.491
ltibia 47.0247
lfoot -17.4825 28.0245
ltoes 14.3103
1769
root 4.61949 16.3426 0.109839 103.026 -86.9137 -126.571
lowerback 35.9542 -0.417656 -0.330472
upperback 8.80651 -1.56363 2.6643
thorax -8.11134 -1.29532 3.66577
lowerneck -14.2316 -3.1386 -4.62865
upperneck 4.15725 -3.89764 6.07332
head 3.74635 -1.71091 2.32563
rclavicle -1.94809e-014 1.11319e-014
rhumerus -36.1485 1.67233 -83.9929
rradius 47.6646
rwrist 27.3431
rhand -5.96156 -4.91513
rfingers 7.12502
rthumb 19.8693 -33.9195
lclavicle -1.94809e-014 1.11319e-014
lhumerus -15.9249 0.789489 93.0976
lradius 46.1523
lwrist -202.66
lhand -16.7492 6.1271
lfingers 7.12502
lthumb 9.47738 35.894
rfemur -172.754 -169.977 197.209
rtibia 49.1817
rfoot 160.02 168.158
rtoes 4.26067
lfemur -178.712 173.129 -193.405
ltibia 46.9263
lfoot -17.4677 27.9453
ltoes 14.5144
1770
root 4.59808 16.3448 0.132273 107.57 -86.7458 -131.242
lowerback 36.159 -0.378447 -0.614434
upperback 8.86194 -1.62695 2.79024
thorax -8.114 -1.33739 3.97838
lowerneck -14.4196 -2.95447 -4.68705
upperneck 4.28654 -3.62429 5.91018
head 3.79819 -1.58099 2.30386
rclavicle -9.54166e-015 -5.56597e-015
rhumerus -36.6436 2.39194 -84.1057
rradius 49.2835
rwrist 26.8163
rhand -5.80852 -5.1422
rfingers 7.12502
rthumb 20.0164 -34.1312
lclavicle -9.54166e-015 -5.56597e-015
lhumerus -15.244 -0.149038 93.4829
lradius 46.6502
lwrist -202.1
lhand -16.4174 6.217
lfingers 7.12502
lthumb 9.79743 35.9691
rfemur -173.607 -170.222 197.046
rtibia 50.6828
rfoot 161.386 168.83
rtoes 5.47444
lfemur -178.343 172.689 -193.276
ltibia 46.7637
lfoot -17.4333 27.8538
ltoes 14.7328
1771
root 4.5775 16.3398 0.156324 111.823 -86.5759 -135.629
lowerback 36.3815 -0.352706 -0.948252
upperback 8.91475 -1.72662 2.92972
thorax -8.12109 -1.3975 4.34651
lowerneck -14.6053 -2.73428 -4.76055
upperneck 4.42376 -3.29587 5.7075
head 3.8489 -1.42662 2.27695
rclavicle -4.32357e-014 5.1684e-014
rhumerus -37.1396 3.19074 -84.2225
rradius 50.9652
rwrist 26.2556
rhand -5.70437 -5.35573
rfingers 7.12502
rthumb 20.1165 -34.3342
lclavicle -4.32357e-014 5.1684e-014
lhumerus -14.5846 -1.11409 93.7118
lradius 47.1676
lwrist -201.428
lhand -16.0528 6.28876
lfingers 7.12502
lthumb 10.1492 36.024
rfemur -174.547 -170.554 196.876
rtibia 52.2243
rfoot 162.91 169.567
rtoes 6.43504
lfemur -177.977 172.238 -193.168
ltibia 46.6027
lfoot -17.401 27.7665
ltoes 14.9237
1772
root 4.55654 16.3386 0.182001 115.636 -86.3633 -139.572
lowerback 36.5834 -0.348252 -1.2317
upperback 8.98019 -1.84011 3.04802
thorax -8.1051 -1.46549 4.67005
lowerneck -14.8615 -2.49687 -4.7876
upperneck 4.62803 -2.94922 5.47818
head 3.92976 -1.26299 2.23555
rclavicle 2.85256e-014 -2.34566e-014
rhumerus -37.61 3.89164 -84.3656
rradius 52.6966
rwrist 25.7706
rhand -5.60353 -5.49292
rfingers 7.12502
rthumb 20.2134 -34.4612
lclavicle 2.85256e-014 -2.34566e-014
lhumerus -13.8769 -1.92605 93.8222
lradius 47.6366
lwrist -200.88
lhand -15.7144 6.39322
lfingers 7.12502
lthumb 10.4756 36.1122
rfemur -175.498 -170.943 196.708
rtibia 53.7202
rfoot 164.293 170.429
rtoes 6.90134
lfemur -177.603 171.777 -193.039
ltibia 46.4339
lfoot -17.3365 27.6794
ltoes 15.189
1773
root 4.53639 16.3372 0.207689 118.778 -86.1342 -142.857
lowerback 36.8187 -0.361123 -1.51708
upperback 9.03789 -1.97794 3.17128
thorax -8.10531 -1.5455 5.01087
lowerneck -15.153 -2.23725 -4.76412
upperneck 4.89532 -2.57391 5.16784
head 4.03301 -1.08867 2.16353
rclavicle 8.44835e-015 -1.15295e-014
rhumerus -38.0708 4.5686 -84.5257
rradius 54.4648
rwrist 25.3353
rhand -5.51804 -5.64396
rfingers 7.12502
rthumb 20.2956 -34.6035
lclavicle 8.44835e-015 -1.15295e-014
lhumerus -13.1529 -2.51311 93.8681
lradius 48.0066
lwrist -200.505
lhand -15.3828 6.58456
lfingers 7.12502
lthumb 10.7956 36.2871
rfemur -176.453 -171.41 196.577
rtibia 55.1644
rfoot 165.322 171.261
rtoes 7.16488
lfemur -177.234 171.292 -192.882
ltibia 46.3059
lfoot -17.3093 27.5811
ltoes 15.487
